<svg width="800" height="400" viewBox="0 0 800 400" xmlns="http://www.w3.org/2000/svg">
  <rect width="800" height="400" fill="#0a0a0a"/>
  <g opacity="0.08">
    <line x1="0" y1="80" x2="800" y2="80" stroke="#FFD700" stroke-width="1"/>
    <line x1="0" y1="200" x2="800" y2="200" stroke="#FFD700" stroke-width="1"/>
    <line x1="0" y1="320" x2="800" y2="320" stroke="#FFD700" stroke-width="1"/>
  </g>
  <g transform="translate(600,90)">
    <circle cx="60" cy="60" r="70" fill="none" stroke="#FFD700" stroke-width="2" opacity="0.6"/>
    <path d="M 30 50 Q 30 20 60 20 Q 90 20 90 50 Q 100 55 95 70 Q 100 85 85 90 L 85 110 L 35 110 L 35 90 Q 20 85 25 70 Q 20 55 30 50 Z" fill="#FFD700" opacity="0.2" stroke="#FFD700" stroke-width="2"/>
    <circle cx="48" cy="55" r="3" fill="#FFD700"/>
    <circle cx="72" cy="55" r="3" fill="#FFD700"/>
  </g>
  <g transform="translate(60,200)">
    <path d="M0 60 Q 40 0 80 60 Q 120 120 160 60 Q 200 0 240 60" stroke="#22c55e" stroke-width="2.5" fill="none" opacity="0.85"/>
    <text x="0" y="90" font-family="Arial, sans-serif" font-size="13" fill="#cccccc">Emotional swings: fear, greed, FOMO</text>
  </g>
  <text x="60" y="60" font-family="Arial, sans-serif" font-size="32" font-weight="700" fill="#FFD700">Market Psychology</text>
  <text x="60" y="95" font-family="Arial, sans-serif" font-size="15" fill="#cccccc">Mastering discipline, emotion, and trader mindset</text>
</svg>
