<svg width="800" height="400" viewBox="0 0 800 400" xmlns="http://www.w3.org/2000/svg">
  <rect width="800" height="400" fill="#0a0a0a"/>
  <g opacity="0.08">
    <circle cx="650" cy="200" r="180" fill="none" stroke="#FFD700" stroke-width="1"/>
    <circle cx="650" cy="200" r="120" fill="none" stroke="#FFD700" stroke-width="1"/>
    <circle cx="650" cy="200" r="60" fill="none" stroke="#FFD700" stroke-width="1"/>
  </g>
  <g transform="translate(600,130)">
    <path d="M 50 0 L 100 20 L 100 80 Q 100 130 50 160 Q 0 130 0 80 L 0 20 Z" fill="#FFD700" opacity="0.15" stroke="#FFD700" stroke-width="2"/>
    <path d="M 30 75 L 45 90 L 75 50" stroke="#FFD700" stroke-width="5" fill="none" stroke-linecap="round" stroke-linejoin="round"/>
  </g>
  <g transform="translate(60,250)" opacity="0.9">
    <rect x="0" y="0" width="200" height="8" rx="4" fill="#333333"/>
    <rect x="0" y="0" width="70" height="8" rx="4" fill="#ef4444"/>
    <text x="0" y="-12" font-family="Arial, sans-serif" font-size="13" fill="#cccccc">Max risk per trade</text>
  </g>
  <g transform="translate(60,300)" opacity="0.9">
    <rect x="0" y="0" width="200" height="8" rx="4" fill="#333333"/>
    <rect x="0" y="0" width="160" height="8" rx="4" fill="#22c55e"/>
    <text x="0" y="-12" font-family="Arial, sans-serif" font-size="13" fill="#cccccc">Portfolio safety margin</text>
  </g>
  <text x="60" y="60" font-family="Arial, sans-serif" font-size="32" font-weight="700" fill="#FFD700">Risk Management</text>
  <text x="60" y="95" font-family="Arial, sans-serif" font-size="15" fill="#cccccc">Protecting capital through disciplined position sizing</text>
</svg>
