<svg width="800" height="400" viewBox="0 0 800 400" xmlns="http://www.w3.org/2000/svg">
  <rect width="800" height="400" fill="#0a0a0a"/>
  <g opacity="0.08">
    <line x1="0" y1="100" x2="800" y2="100" stroke="#FFD700" stroke-width="1"/>
    <line x1="0" y1="200" x2="800" y2="200" stroke="#FFD700" stroke-width="1"/>
    <line x1="0" y1="300" x2="800" y2="300" stroke="#FFD700" stroke-width="1"/>
  </g>
  <g transform="translate(60,150)">
    <line x1="20" y1="0" x2="20" y2="140" stroke="#22c55e" stroke-width="2"/>
    <rect x="10" y="30" width="20" height="60" fill="#22c55e"/>
    <line x1="70" y1="-20" x2="70" y2="160" stroke="#ef4444" stroke-width="2"/>
    <rect x="60" y="10" width="20" height="90" fill="#ef4444"/>
    <line x1="120" y1="10" x2="120" y2="130" stroke="#22c55e" stroke-width="2"/>
    <rect x="110" y="40" width="20" height="50" fill="#22c55e"/>
    <line x1="170" y1="-30" x2="170" y2="100" stroke="#22c55e" stroke-width="2"/>
    <rect x="160" y="-5" width="20" height="70" fill="#22c55e"/>
    <line x1="220" y1="-50" x2="220" y2="60" stroke="#ef4444" stroke-width="2"/>
    <rect x="210" y="-30" width="20" height="55" fill="#ef4444"/>
    <line x1="270" y1="-80" x2="270" y2="40" stroke="#22c55e" stroke-width="2"/>
    <rect x="260" y="-60" width="20" height="65" fill="#22c55e"/>
  </g>
  <path d="M 480 280 L 540 260 L 580 200 L 640 180 L 700 100" stroke="#FFD700" stroke-width="2.5" fill="none" opacity="0.9" stroke-dasharray="6,4"/>
  <text x="60" y="60" font-family="Arial, sans-serif" font-size="32" font-weight="700" fill="#FFD700">Technical Analysis</text>
  <text x="60" y="95" font-family="Arial, sans-serif" font-size="15" fill="#cccccc">Reading charts, patterns, and momentum indicators</text>
</svg>
