<svg width="800" height="400" viewBox="0 0 800 400" xmlns="http://www.w3.org/2000/svg">
  <rect width="800" height="400" fill="#0a0a0a"/>
  <g opacity="0.08">
    <line x1="0" y1="80" x2="800" y2="80" stroke="#FFD700" stroke-width="1"/>
    <line x1="0" y1="160" x2="800" y2="160" stroke="#FFD700" stroke-width="1"/>
    <line x1="0" y1="240" x2="800" y2="240" stroke="#FFD700" stroke-width="1"/>
    <line x1="0" y1="320" x2="800" y2="320" stroke="#FFD700" stroke-width="1"/>
  </g>
  <g transform="translate(60,280)">
    <rect x="0" y="-40" width="14" height="40" fill="#FFD700" opacity="0.85"/>
    <rect x="30" y="-70" width="14" height="70" fill="#FFD700" opacity="0.85"/>
    <rect x="60" y="-100" width="14" height="100" fill="#FFD700" opacity="0.85"/>
    <rect x="90" y="-60" width="14" height="60" fill="#ffffff" opacity="0.7"/>
    <rect x="120" y="-130" width="14" height="130" fill="#FFD700" opacity="0.9"/>
    <rect x="150" y="-90" width="14" height="90" fill="#ffffff" opacity="0.7"/>
    <rect x="180" y="-150" width="14" height="150" fill="#FFD700" opacity="0.95"/>
  </g>
  <path d="M 480 320 Q 580 280 620 220 Q 660 160 740 90" stroke="#ffffff" stroke-width="3" fill="none" opacity="0.9"/>
  <circle cx="740" cy="90" r="8" fill="#FFD700"/>
  <g opacity="0.15">
    <path d="M400 0 L 460 110 L 340 110 Z" fill="#FFD700"/>
  </g>
  <text x="60" y="60" font-family="Arial, sans-serif" font-size="32" font-weight="700" fill="#FFD700">Trading Basics</text>
  <text x="60" y="95" font-family="Arial, sans-serif" font-size="15" fill="#cccccc">Foundations of buying, selling, and market mechanics</text>
</svg>
